<svg xmlns="http://www.w3.org/2000/svg" xmlns:xlink="http://www.w3.org/1999/xlink" version="1.1" x="0px" y="0px" viewBox="0 0 100 125" style="enable-background:new 0 0 100 100;" xml:space="preserve"><g><path d="M50.4,62.9c-0.6,0-1.2-0.2-1.7-0.5L32.4,53c-1.1-0.6-1.8-1.8-1.7-3c0-1.3,0.7-2.4,1.8-3l16.2-9.4c1.1-0.6,2.4-0.6,3.5,0   c1.1,0.6,1.8,1.8,1.8,3v18.8c0,1.3-0.7,2.4-1.8,3C51.6,62.7,51,62.9,50.4,62.9z M33.9,50.4l16.2,9.4c0.2,0.1,0.4,0.1,0.5,0   c0.1-0.1,0.2-0.2,0.2-0.4V40.6c0-0.3-0.2-0.4-0.2-0.4c-0.1-0.1-0.3-0.1-0.5,0l-16.2,9.4c-0.2,0.1-0.2,0.3-0.2,0.4   S33.7,50.3,33.9,50.4L33.9,50.4z"/></g><g><path d="M65.8,62.9h-4.2c-1.9,0-3.5-1.6-3.5-3.5V40.6c0-1.9,1.6-3.5,3.5-3.5h4.2c1.9,0,3.5,1.6,3.5,3.5v18.8   C69.3,61.3,67.8,62.9,65.8,62.9z M61.6,40.1c-0.3,0-0.5,0.2-0.5,0.5v18.8c0,0.3,0.2,0.5,0.5,0.5h4.2c0.3,0,0.5-0.2,0.5-0.5V40.6   c0-0.3-0.2-0.5-0.5-0.5H61.6z"/></g><text x="0" y="115" fill="#000000" font-size="5px" font-weight="bold" font-family="'Helvetica Neue', Helvetica, Arial-Unicode, Arial, Sans-serif">Created by Tomasz Pasternak</text><text x="0" y="120" fill="#000000" font-size="5px" font-weight="bold" font-family="'Helvetica Neue', Helvetica, Arial-Unicode, Arial, Sans-serif">from the Noun Project</text></svg>