<svg xmlns="http://www.w3.org/2000/svg" xmlns:xlink="http://www.w3.org/1999/xlink" version="1.1" x="0px" y="0px" viewBox="0 0 16 20" enable-background="new 0 0 16 16" xml:space="preserve"><path d="M8,16c-4.411,0-8-3.589-8-8s3.589-8,8-8s8,3.589,8,8S12.411,16,8,16z M8,0.941C4.107,0.941,0.941,4.107,0.941,8  S4.107,15.059,8,15.059S15.059,11.893,15.059,8S11.893,0.941,8,0.941z"/><path d="M6.453,11.707c0,0.276-0.224,0.5-0.5,0.5l0,0c-0.276,0-0.5-0.224-0.5-0.5V4.293c0-0.276,0.224-0.5,0.5-0.5l0,0  c0.276,0,0.5,0.224,0.5,0.5V11.707z"/><path d="M10.547,11.707c0,0.276-0.224,0.5-0.5,0.5l0,0c-0.276,0-0.5-0.224-0.5-0.5V4.293c0-0.276,0.224-0.5,0.5-0.5l0,0  c0.276,0,0.5,0.224,0.5,0.5V11.707z"/><text x="0" y="31" fill="#000000" font-size="5px" font-weight="bold" font-family="'Helvetica Neue', Helvetica, Arial-Unicode, Arial, Sans-serif">Created by Mohamed Mb</text><text x="0" y="36" fill="#000000" font-size="5px" font-weight="bold" font-family="'Helvetica Neue', Helvetica, Arial-Unicode, Arial, Sans-serif">from the Noun Project</text></svg>